<svg xmlns="http://www.w3.org/2000/svg" viewBox="0 0 3055 369"><path d="M63.5 0H3055v304.79L2990.61 369H0V63.39Z" fill="#41cd52"/><path d="M191.324 259.608c-3.7 1.137-11.1 1.707-17.356 1.707-61.177 0-79.387-33.576-79.387-99.588 0-65.16 18.495-101.581 79.387-101.581s79.1 36.136 79.1 101.581c0 44.1-8.25 72.272-31.014 87.353l23.9 38.413-29.308 13.658Zm29.023-97.881c0-48.373-8.82-73.982-46.379-73.982S127.3 113.354 127.3 161.727c0 48.94 8.821 71.987 46.666 71.987s46.381-22.193 46.381-71.987ZM323.336 142.377v62.6c0 21.341.853 28.738 15.65 28.738 7.968 0 23.332-.853 23.332-.853l1.422 24.754s-19.063 3.7-29.021 3.7c-32.154 0-42.113-11.95-42.113-52.924v-66.015H274.4v-26.461h18.211V74.657h30.73v41.259H362.6v26.461Z" fill="#b3ff97"/><path d="M422.916 63.275H485.8l48.371 194.91H502.3l-10.528-41.827H416.94l-10.528 41.827h-31.584Zm.284 125.2h62.314l-23.9-98.735h-14.228ZM558.346 115.916h30.73v8.82s19.633-11.95 36.706-11.95c36.99 0 54.346 21.055 54.346 72.842 0 58.614-19.916 75.687-63.737 75.687-11.665 0-25.323-2.277-27.031-2.56v60.607h-31.014Zm31.014 32.436v83.94a186.876 186.876 0 0 0 25.041 2.277c26.461 0 34.144-13.943 34.144-48.941 0-33.291-10.528-45.242-28.169-45.242-15.081 0-31.016 7.966-31.016 7.966ZM711.131 115.916h30.73v8.82s19.633-11.95 36.705-11.95c36.991 0 54.347 21.055 54.347 72.842 0 58.614-19.918 75.687-63.737 75.687-11.665 0-25.323-2.277-27.031-2.56v60.607h-31.014Zm31.014 32.436v83.94a186.876 186.876 0 0 0 25.041 2.277c26.461 0 34.144-13.943 34.144-48.941 0-33.291-10.528-45.242-28.169-45.242-15.081 0-31.016 7.966-31.016 7.966ZM866.2 63.275h31.583v194.91H866.2ZM939.033 258.185V115.916h30.729v8.82s20.772-11.95 39.267-11.95c39.55 0 49.225 22.478 49.225 69.142v76.257h-30.731v-75.4c0-28.455-3.7-42.4-25.323-42.4-16.5 0-32.153 7.4-32.153 7.4v110.4ZM1193.115 145.222s-33.576-4.552-50.649-4.552-24.755 3.984-24.755 15.65c0 9.39 5.975 11.95 33.86 16.788 34.144 5.975 46.38 14.512 46.38 42.966 0 33.291-21.056 45.241-56.338 45.241-19.635 0-52.641-6.26-52.641-6.26l1.138-25.893s34.145 4.552 48.656 4.552c20.488 0 28.455-4.267 28.455-16.787 0-9.959-4.837-13.089-33.007-17.641-31.3-5.123-47.233-11.951-47.233-42.112 0-32.153 25.039-44.1 53.208-44.1 20.772 0 53.494 6.259 53.494 6.259ZM1265.093 142.377v62.6c0 21.341.854 28.738 15.65 28.738 7.964 0 23.33-.853 23.33-.853l1.422 24.754s-19.063 3.7-29.02 3.7c-32.153 0-42.113-11.95-42.113-52.924v-66.015h-18.211v-26.461h18.211V74.657h30.731v41.259h39.266v26.461ZM1434.953 224.609c.57 8.537 4.268 11.951 12.52 13.089l-.853 23.617c-17.357 0-27.316-2.277-37.846-10.528 0 0-22.762 10.528-45.81 10.528-28.169 0-42.395-15.65-42.395-45.241 0-30.161 16.5-40.406 46.949-42.966l36.7-3.13v-10.243c0-15.651-6.829-20.488-20.772-20.488-19.064 0-53.492 2.847-53.492 2.847l-1.14-21.911s31.017-7.4 57.194-7.4c34.715 0 48.941 14.51 48.941 46.949Zm-63.737-29.591c-13.09 1.138-19.633 7.4-19.633 20.2s5.407 20.772 17.357 20.772c16.219 0 35.282-6.26 35.282-6.26v-37.842ZM1473.922 258.185V115.916h30.731v8.82s20.772-11.95 39.266-11.95c39.55 0 49.224 22.478 49.224 69.142v76.257h-30.73v-75.4c0-28.455-3.7-42.4-25.324-42.4-16.5 0-32.153 7.4-32.153 7.4v110.4ZM1725.157 118.191l-1.136 24.471s-22.478-2.276-33.293-2.276c-29.591 0-36.421 11.951-36.421 44.672 0 36.421 5.977 48.656 36.708 48.656 10.811 0 33.289-2.275 33.289-2.275l.853 24.754s-28.738 5.122-43.248 5.122c-43.82 0-58.9-21.625-58.9-76.257 0-50.932 17.071-72.272 59.469-72.272 15.08 0 42.679 5.405 42.679 5.405ZM1862.867 231.722l.57 23.048s-32.437 6.545-57.477 6.545c-42.681 0-59.186-22.763-59.186-72.842 0-52.071 22.479-75.687 61.745-75.687 39.836 0 59.755 20.771 59.755 65.159l-1.992 22.194h-88.207c.283 22.763 8.821 34.145 32.436 34.145 22.479 0 52.356-2.562 52.356-2.562Zm-25.04-55.484c0-28.454-8.536-37.844-29.308-37.844-21.056 0-30.444 10.528-30.728 37.844ZM1901.839 63.275h54.918l43.534 152.225 43.534-152.229h55.2v194.91h-31.87V98.273h-4.267l-46.1 151.945h-33.007l-46.088-151.945h-4.27v159.912h-31.584ZM2245.261 224.609c.569 8.537 4.268 11.951 12.52 13.089l-.853 23.617c-17.358 0-27.316-2.277-37.844-10.528 0 0-22.764 10.528-45.812 10.528-28.169 0-42.395-15.65-42.395-45.241 0-30.161 16.5-40.406 46.949-42.966l36.7-3.13v-10.243c0-15.651-6.827-20.488-20.769-20.488-19.067 0-53.5 2.847-53.5 2.847l-1.136-21.911s31.014-7.4 57.191-7.4c34.715 0 48.941 14.51 48.941 46.949Zm-63.737-29.591c-13.09 1.138-19.633 7.4-19.633 20.2s5.407 20.772 17.357 20.772c16.219 0 35.282-6.26 35.282-6.26v-37.842ZM2284.233 258.185V115.916h30.73v8.82s20.77-11.95 39.266-11.95c39.55 0 49.225 22.478 49.225 69.142v76.257h-30.731v-75.4c0-28.455-3.7-42.4-25.323-42.4-16.505 0-32.153 7.4-32.153 7.4v110.4ZM2544.857 224.609c.569 8.537 4.267 11.951 12.52 13.089l-.853 23.617c-17.358 0-27.316-2.277-37.844-10.528 0 0-22.765 10.528-45.812 10.528-28.169 0-42.395-15.65-42.395-45.241 0-30.161 16.5-40.406 46.949-42.966l36.7-3.13v-10.243c0-15.651-6.83-20.488-20.77-20.488-19.066 0-53.5 2.847-53.5 2.847l-1.136-21.911s31.014-7.4 57.19-7.4c34.716 0 48.942 14.51 48.942 46.949Zm-63.737-29.591c-13.09 1.138-19.633 7.4-19.633 20.2s5.407 20.772 17.357 20.772c16.218 0 35.282-6.26 35.282-6.26v-37.842ZM2577 283.224c0-14.511 7.113-23.332 21.625-34.429-5.976-3.983-9.389-11.95-9.389-20.771 0-6.545 10.242-22.763 10.242-22.763-10.528-6.26-20.486-17.073-20.486-42.681 0-35.852 24.184-49.51 56.907-49.51 13.09 0 29.025 3.7 29.025 3.7l44.1-1.138v25.038l-23.618-1.423a37.052 37.052 0 0 1 7.683 23.333c0 38.7-20.2 49.226-58.047 49.226a89.04 89.04 0 0 1-12.52-1.139s-3.984 9.674-3.984 13.374c0 9.1 3.131 10.811 30.73 11.1 44.957.285 58.9 9.675 58.9 42.4 0 33.576-27.6 46.666-65.727 46.666-42.964-.007-65.441-8.545-65.441-40.983Zm41.828-23.047c-7.969 6.544-11.381 11.381-11.381 20.2 0 13.089 9.389 18.5 35.282 18.5 23.048 0 34.429-5.69 34.429-19.633 0-15.365-7.4-17.073-30.445-17.356-8.823-.003-27.886-1.711-27.886-1.711Zm43.534-97.6c0-17.073-7.4-25.324-26.463-25.324-18.21 0-26.176 8.251-26.176 25.324 0 17.357 7.966 25.323 26.176 25.323 19.063 0 26.462-7.963 26.462-25.32ZM2842.463 231.722l.57 23.048s-32.44 6.545-57.477 6.545c-42.681 0-59.186-22.763-59.186-72.842 0-52.071 22.479-75.687 61.745-75.687 39.836 0 59.755 20.771 59.755 65.159l-1.992 22.194h-88.208c.284 22.763 8.82 34.145 32.437 34.145 22.478 0 52.356-2.562 52.356-2.562Zm-25.04-55.484c0-28.454-8.536-37.844-29.308-37.844-21.056 0-30.445 10.528-30.731 37.844ZM2877.737 115.916h30.73v17.072s24.185-15.65 48.372-20.2V143.8a251.57 251.57 0 0 0-48.088 15.08v99.305h-31.014Z" fill="#fff"/></svg>